<?xml version="1.0" encoding="UTF-8"?>
<svg version="1.1" xmlns="http://www.w3.org/2000/svg" width="776" height="321">
<path d="M0 0 C0.76183594 0.51175781 1.52367187 1.02351563 2.30859375 1.55078125 C16.14784357 11.60042713 26.36226939 26.17346436 29.59765625 43.1328125 C31.97003047 65.93524434 29.32878575 85.70457643 15.2109375 104.3359375 C2.37967708 119.79692621 -14.97322845 126.74104019 -34.5625 128.875 C-54.37632628 129.87916178 -72.84208071 123.5452295 -88 111 C-100.71610434 98.62272603 -109.51939803 82.0569024 -110 64 C-110.03867188 63.23945313 -110.07734375 62.47890625 -110.1171875 61.6953125 C-110.57416875 45.80252019 -106.02956575 31.55390699 -98 18 C-97.51660156 17.13890625 -97.03320312 16.2778125 -96.53515625 15.390625 C-88.21803522 2.43877241 -71.05093426 -5.6368701 -56.703125 -9.421875 C-37.4239839 -13.54515951 -16.57568134 -11.20726368 0 0 Z M-68 32 C-75.84453397 42.26078282 -78.12813437 53.59609411 -76.75390625 66.26953125 C-75.03002089 76.13299902 -70.01254722 85.8843007 -62 92 C-52.72227939 98.26329875 -43.31043488 100.39681038 -32.234375 98.53515625 C-20.93903887 95.86907831 -13.20153322 89.77934085 -7 80 C-1.08228223 67.39491908 -0.47717515 55.13854823 -5 42 C-9.21916331 32.47555214 -16.51325403 24.54041682 -26.1875 20.4375 C-42.34100321 15.47949406 -56.90297625 19.61805771 -68 32 Z " fill="#010101" transform="translate(255,101)"/>
<path d="M0 0 C32.01 0 64.02 0 97 0 C97 9.57 97 19.14 97 29 C94.69 29.66 92.38 30.32 90 31 C90 30.34 90 29.68 90 29 C71.52 29.33 53.04 29.66 34 30 C33.67 37.26 33.34 44.52 33 52 C53.46 52 73.92 52 95 52 C95 61.57 95 71.14 95 81 C74.54 81 54.08 81 33 81 C33 88.92 33 96.84 33 105 C54.12 105 75.24 105 97 105 C97 114.24 97 123.48 97 133 C95.10082994 134.89917006 92.3148094 134.12011873 89.78841305 134.12442875 C88.89264836 134.12083064 87.99688368 134.11723253 87.07397461 134.11352539 C86.12228425 134.11364593 85.17059389 134.11376646 84.19006443 134.11389065 C81.09413417 134.11314128 77.99826331 134.10551195 74.90234375 134.09765625 C72.9971113 134.09618691 71.09187844 134.09516615 69.18664551 134.09460449 C62.10359087 134.08935074 55.02054486 134.07538967 47.9375 134.0625 C32.118125 134.041875 16.29875 134.02125 0 134 C0 89.78 0 45.56 0 0 Z " fill="#000000" transform="translate(441,93)"/>
<path d="M0 0 C13.2 -0.144375 26.4 -0.28875 40 -0.4375 C46.20296875 -0.53309204 46.20296875 -0.53309204 52.53125 -0.63061523 C57.6640625 -0.66223145 57.6640625 -0.66223145 60.08300781 -0.66810608 C61.73743964 -0.67870739 63.39182472 -0.70301262 65.04589844 -0.73902893 C79.9434661 -1.04659538 91.72317721 1.69457572 103.625 11.1875 C111.22621821 18.63489929 115.0903827 28.05067646 115.29248047 38.52880859 C115.38050792 51.59337015 114.36844528 62.12855095 105 72 C93.97441361 82.49951468 81.42127313 85.05065194 66.69140625 85.31640625 C65.24132423 85.3475779 65.24132423 85.3475779 63.76194763 85.37937927 C60.69553242 85.44438991 57.62903678 85.50353277 54.5625 85.5625 C52.4746013 85.6057314 50.38671051 85.64934712 48.29882812 85.69335938 C43.19929967 85.80002115 38.09969089 85.90142309 33 86 C33.00222061 86.58659897 33.00444122 87.17319794 33.00672913 87.77757263 C33.0287821 93.86025384 33.04390664 99.94292377 33.05493164 106.02563477 C33.05997325 108.29842591 33.06680637 110.5712138 33.07543945 112.84399414 C33.08751261 116.10303551 33.09322987 119.36203417 33.09765625 122.62109375 C33.10281754 123.64400009 33.10797882 124.66690643 33.11329651 125.72080994 C33.11337204 126.66170975 33.11344757 127.60260956 33.11352539 128.57202148 C33.115746 129.40475082 33.11796661 130.23748016 33.12025452 131.09544373 C33 133 33 133 32 134 C21.11 134 10.22 134 -1 134 C-0.67 89.78 -0.34 45.56 0 0 Z M33 29 C32.67 37.91 32.34 46.82 32 56 C37.40858151 56.09219173 42.81440123 56.17171712 48.22314453 56.21972656 C50.06015293 56.23975373 51.89709829 56.26698382 53.73388672 56.30175781 C56.38525002 56.35067065 59.03576541 56.37305763 61.6875 56.390625 C62.49928711 56.41127014 63.31107422 56.43191528 64.14746094 56.45318604 C70.7151251 56.45572928 76.1430366 54.76480329 80.9375 50.125 C82.96463294 46.07073412 83.12676029 42.90316706 82.5 38.4375 C80.59653477 34.07539219 78.27042931 32.02960189 74 30 C71.24741188 29.66290938 71.24741188 29.66290938 69 30 C68.505 29.505 68.505 29.505 68 29 C65.40640678 28.91148471 62.83960309 28.88474055 60.24609375 28.90234375 C59.47064713 28.9037587 58.6952005 28.90517365 57.89625549 28.90663147 C55.40996506 28.91224655 52.9237634 28.92480154 50.4375 28.9375 C48.75586067 28.94251306 47.07421994 28.9470763 45.39257812 28.95117188 C41.26165671 28.96137168 37.13092818 28.98094395 33 29 Z " fill="#000000" transform="translate(306,93)"/>
<path d="M0 0 C3.36821221 0.9902731 3.36821221 0.9902731 5.67578125 0.91015625 C5.67578125 1.57015625 5.67578125 2.23015625 5.67578125 2.91015625 C6.23265625 3.02617188 6.78953125 3.1421875 7.36328125 3.26171875 C21.84889379 7.32356281 32.41874007 19.26596738 39.93359375 31.6484375 C41.5680152 34.70839693 42.62599438 37.61612638 43.67578125 40.91015625 C38.83791165 41.08430425 34.00189779 41.21072844 29.16162109 41.29467773 C27.51839387 41.32969839 25.87538191 41.37733326 24.23291016 41.43823242 C8.81661386 41.99516602 8.81661386 41.99516602 3.84765625 37.53125 C3.32268555 36.91306396 2.79771484 36.29487793 2.25683594 35.65795898 C-1.93442688 31.02465903 -9.33712204 29.14227459 -15.390625 28.671875 C-26.29775983 28.44032689 -35.0598662 30.32014246 -43.67578125 37.265625 C-46.28265215 39.86631848 -47.67871283 42.61914441 -49.32421875 45.91015625 C-49.81921875 46.52503906 -50.31421875 47.13992187 -50.82421875 47.7734375 C-55.60337397 54.58124455 -56.28272586 64.85438861 -55.32421875 72.91015625 C-52.92673881 84.99237156 -48.54595138 94.69207626 -38.32421875 101.91015625 C-29.07816182 107.41844548 -19.09102981 108.22321989 -8.76171875 105.78515625 C-3.08614373 104.08650897 3.853773 101.28537789 6.79614258 95.8347168 C8.67578125 93.91015625 8.67578125 93.91015625 12.22924805 93.45605469 C13.69465133 93.45668671 15.16015131 93.47921386 16.625 93.51953125 C17.39761673 93.52519104 18.17023346 93.53085083 18.96626282 93.53668213 C21.43256754 93.55906298 23.89741617 93.60925922 26.36328125 93.66015625 C28.0357863 93.68021919 29.70831414 93.69847033 31.38085938 93.71484375 C35.47972721 93.75893294 39.57750742 93.8279695 43.67578125 93.91015625 C43.21381333 95.33687189 42.74826828 96.76242954 42.28125 98.1875 C42.02239014 98.98148193 41.76353027 99.77546387 41.49682617 100.59350586 C40.46598899 103.50210355 39.13741184 106.19569944 37.67578125 108.91015625 C37.01578125 108.91015625 36.35578125 108.91015625 35.67578125 108.91015625 C35.38703125 109.50828125 35.09828125 110.10640625 34.80078125 110.72265625 C33.67578125 112.91015625 33.67578125 112.91015625 31.67578125 115.91015625 C31.01578125 115.91015625 30.35578125 115.91015625 29.67578125 115.91015625 C29.45792969 116.47863281 29.24007812 117.04710937 29.015625 117.6328125 C23.79308544 126.50960715 10.99276855 132.02850046 1.5546875 134.83984375 C-18.82480835 139.97753178 -39.01448775 137.89305618 -57.28930664 127.18066406 C-72.15461697 118.01800333 -82.82924339 103.57784898 -87.13671875 86.59765625 C-90.53919079 69.42230338 -89.25741887 53.35067381 -83.32421875 36.91015625 C-82.66421875 36.91015625 -82.00421875 36.91015625 -81.32421875 36.91015625 C-81.32421875 35.26015625 -81.32421875 33.61015625 -81.32421875 31.91015625 C-80.66421875 31.91015625 -80.00421875 31.91015625 -79.32421875 31.91015625 C-79.05738281 31.3378125 -78.79054688 30.76546875 -78.515625 30.17578125 C-71.26175041 16.38152794 -57.74364361 6.68279966 -43.234375 1.78515625 C-27.97167461 -2.80389729 -15.4105606 -3.88246 0 0 Z " fill="#010101" transform="translate(642.32421875,92.08984375)"/>
<path d="M0 0 C17.325 0.495 17.325 0.495 35 1 C34.11870073 5.40649633 32.82987011 9.06187589 31.04296875 13.125 C30.74443497 13.8150412 30.44590118 14.5050824 30.13832092 15.21603394 C29.49507163 16.702007 28.84973188 18.18707656 28.20251465 19.67132568 C26.46664136 23.65381356 24.74758906 27.64355505 23.02734375 31.6328125 C22.67999176 32.43743927 22.33263977 33.24206604 21.97476196 34.07107544 C18.99778103 40.97805434 16.10622475 47.9171244 13.25 54.875 C9.60696722 63.74549366 5.91309591 72.5923261 2.171875 81.421875 C1.74698792 82.42513824 1.32210083 83.42840149 0.88433838 84.46206665 C-1.24094246 89.47878081 -3.36969735 94.49398631 -5.50292969 99.50732422 C-10.70514949 111.71747837 -10.70514949 111.71747837 -15.34375 124.14990234 C-16.71183708 128.00680854 -18.96955603 131.4630976 -21 135 C-25.23582327 135.04938628 -29.47149465 135.08571263 -33.70751953 135.10986328 C-35.14895547 135.11992963 -36.59037095 135.1335838 -38.03173828 135.15087891 C-40.10193934 135.17510012 -42.17187076 135.18647641 -44.2421875 135.1953125 C-46.11173096 135.21102295 -46.11173096 135.21102295 -48.01904297 135.22705078 C-51 135 -51 135 -53 133 C-53 132.01 -53 131.02 -53 130 C-53.66 129.67 -54.32 129.34 -55 129 C-55.8816486 126.96609778 -56.68163658 124.8964225 -57.4375 122.8125 C-58.6904766 119.37565196 -59.95282608 116.09377115 -61.59765625 112.82421875 C-62.79126478 110.42037762 -63.37596288 108.56387343 -64 106 C-65.26500626 102.96538664 -66.57950142 99.96036523 -67.91601562 96.95703125 C-70 92.20373033 -70 92.20373033 -70 90 C-70.99 89.505 -70.99 89.505 -72 89 C-72.33 88.01 -72.66 87.02 -73 86 C-73.350625 85.360625 -73.70125 84.72125 -74.0625 84.0625 C-75 82 -75 82 -75 78 C-75.66 77.67 -76.32 77.34 -77 77 C-77.74609375 75.07421875 -77.74609375 75.07421875 -78.4375 72.6875 C-79.51512839 69.21819636 -80.70510015 66.84130457 -83 64 C-83 63.01 -83 62.02 -83 61 C-83.3185177 58.89179203 -83.3185177 58.89179203 -84 57 C-84.66 56.67 -85.32 56.34 -86 56 C-86.78125 54.07421875 -86.78125 54.07421875 -87.5 51.6875 C-88.43639357 48.60859722 -89.53607067 45.86292631 -91 43 C-91.495 41.515 -91.495 41.515 -92 40 C-93.11549098 37.30747337 -94.24238858 34.62112417 -95.37890625 31.9375 C-96.05950161 30.32042056 -96.73983211 28.70322964 -97.41992188 27.0859375 C-98.49281197 24.53699283 -99.56726373 21.98875765 -100.64624023 19.44238281 C-101.68699687 16.9844408 -102.72100561 14.52375171 -103.75390625 12.0625 C-104.07887589 11.29993896 -104.40384552 10.53737793 -104.73866272 9.75170898 C-107 4.34096539 -107 4.34096539 -107 1 C-95.78 1 -84.56 1 -73 1 C-68.49968038 10.00063925 -68.49968038 10.00063925 -67.14404297 13.19921875 C-66.83592178 13.92281586 -66.5278006 14.64641296 -66.21034241 15.39193726 C-65.89085129 16.14947296 -65.57136017 16.90700867 -65.2421875 17.6875 C-64.89735825 18.49957916 -64.55252899 19.31165833 -64.19725037 20.14834595 C-63.0872566 22.76448038 -61.98102701 25.38218637 -60.875 28 C-60.10846305 29.8091439 -59.3417793 31.6182256 -58.57495117 33.42724609 C-54.05893318 44.08930172 -49.57396902 54.76388447 -45.13671875 65.45898438 C-42.14731326 72.66408317 -39.09428487 79.83935973 -36 87 C-32.57055972 79.51118493 -29.21999975 71.9918155 -25.9375 64.4375 C-25.51662109 63.47392578 -25.09574219 62.51035156 -24.66210938 61.51757812 C-22.69810724 57.00189571 -20.7760083 52.47929499 -18.96875 47.8984375 C-16.99636711 42.91684936 -14.7973359 38.05575347 -12.5625 33.1875 C-7.66496901 22.4131325 -2.87847748 11.51390992 0 0 Z " fill="#010101" transform="translate(107,92)"/>
<path d="M0 0 C30.36 0 60.72 0 92 0 C92 30.36 92 60.72 92 92 C79.46 92 66.92 92 54 92 C53.67 74.51 53.34 57.02 53 39 C35.51 38.67 18.02 38.34 0 38 C0 25.46 0 12.92 0 0 Z " fill="#D30F16" transform="translate(684,0)"/>
<path d="M0 0 C3.48006487 2.8473258 4.89162987 5.16158571 6.75 9.25 C6.42 10.24 6.09 11.23 5.75 12.25 C5.42 11.92 5.09 11.59 4.75 11.25 C3.3556801 11.14432523 1.95928326 11.06551077 0.5625 11 C-3.31059867 10.64070311 -4.09684187 10.38360603 -7.1875 7.6875 C-10.97212559 4.67524698 -13.13176155 4.57584586 -17.84375 4.82421875 C-21.41019965 5.45529507 -23.58035961 6.84732365 -26.25 9.25 C-29.17026119 13.90227818 -28.88008627 18.94037058 -28.25 24.25 C-26.21240708 28.39795701 -24.52657105 30.57755525 -20.25 32.25 C-17.65845081 32.49029959 -17.65845081 32.49029959 -15 32.375 C-13.66195312 32.34792969 -13.66195312 32.34792969 -12.296875 32.3203125 C-11.62140625 32.29710937 -10.9459375 32.27390625 -10.25 32.25 C-9.92 31.59 -9.59 30.93 -9.25 30.25 C-7.1875 29.625 -7.1875 29.625 -5.25 29.25 C-5.25 28.59 -5.25 27.93 -5.25 27.25 C-4.59 27.25 -3.93 27.25 -3.25 27.25 C-3.25 26.26 -3.25 25.27 -3.25 24.25 C-8.2 23.92 -13.15 23.59 -18.25 23.25 C-18.25 20.94 -18.25 18.63 -18.25 16.25 C-9.67 16.25 -1.09 16.25 7.75 16.25 C7.75 25.43800745 6.04188493 30.29973809 0.25 37.25 C-6.55170235 42.69136188 -14.99358158 42.05247754 -23.25 41.25 C-29.0227987 39.2661326 -32.79015698 35.13448426 -36.25 30.25 C-39.28400426 23.97901232 -39.40669935 16.53048024 -37.59765625 9.8359375 C-34.73014765 3.46096129 -29.70190483 -0.92613548 -23.3125 -3.625 C-14.60421513 -6.44386678 -7.80274511 -4.20147814 0 0 Z " fill="#030303" transform="translate(180.25,279.75)"/>
<path d="M0 0 C2.97 0 5.94 0 9 0 C11.31109862 2.37191701 12.56472115 4.00904208 14.125 6.8125 C14.5375 7.48869385 14.95 8.1648877 15.375 8.86157227 C16.21043584 10.2352091 17.03255508 11.61703793 17.84082031 13.00683594 C19.49881923 15.85770013 21.24357563 18.64616998 23 21.4375 C23.53625 22.32308594 24.0725 23.20867187 24.625 24.12109375 C25.07875 24.74113281 25.5325 25.36117188 26 26 C26.66 26 27.32 26 28 26 C27.99214478 24.8718689 27.99214478 24.8718689 27.98413086 23.72094727 C27.96342773 20.33480658 27.95036123 16.94867916 27.9375 13.5625 C27.92912109 12.37849609 27.92074219 11.19449219 27.91210938 9.97460938 C27.90727539 8.28754883 27.90727539 8.28754883 27.90234375 6.56640625 C27.89710693 5.52427979 27.89187012 4.48215332 27.88647461 3.40844727 C28 1 28 1 29 0 C31.97 0 34.94 0 38 0 C38 14.85 38 29.7 38 45 C34.7 45 31.4 45 28 45 C25.3865289 42.09060548 23.84966966 39.97830174 22.0625 36.625 C21.16233291 35.05194206 20.25756897 33.48150338 19.34765625 31.9140625 C18.96617432 31.2123291 18.58469238 30.5105957 18.19165039 29.78759766 C16.96460911 27.69860728 16.96460911 27.69860728 14 26 C14 25.01 14 24.02 14 23 C12.35 20.69 10.7 18.38 9 16 C8.67 25.57 8.34 35.14 8 45 C5.36 45 2.72 45 0 45 C0 30.15 0 15.3 0 0 Z " fill="#030303" transform="translate(66,276)"/>
<path d="M0 0 C9 0 9 0 11.27734375 2.09765625 C11.82519531 3.07605469 12.37304688 4.05445313 12.9375 5.0625 C13.576875 6.14402344 14.21625 7.22554688 14.875 8.33984375 C15.21015625 8.92749512 15.5453125 9.51514648 15.890625 10.12060547 C17.91838519 13.55583829 20.19803892 16.82560468 22.4375 20.125 C26.83151294 26.66302589 26.83151294 26.66302589 28 29 C28.33 19.43 28.66 9.86 29 0 C31.64 0 34.28 0 37 0 C38.18516686 4.67240561 38.14456559 9.1992894 38.1328125 13.984375 C38.13376923 14.84057434 38.13472595 15.69677368 38.13571167 16.57891846 C38.13639008 18.38090082 38.13455949 20.18288566 38.13037109 21.98486328 C38.12499167 24.7542868 38.13034099 27.52355008 38.13671875 30.29296875 C38.13605842 32.04427119 38.13477821 33.79557354 38.1328125 35.546875 C38.13483673 36.37910583 38.13686096 37.21133667 38.13894653 38.06878662 C38.11496818 43.88503182 38.11496818 43.88503182 37 45 C33.79135555 45.85380239 31.18372822 45.99106378 28 45 C25.72624863 42.39212868 24.15265037 39.73859308 22.5078125 36.69921875 C21.15782061 34.28252343 19.94351947 32.895728 18 31 C17.34 29.68 16.68 28.36 16 27 C14.02 24.03 12.04 21.06 10 18 C9.67 26.91 9.34 35.82 9 45 C6.03 45 3.06 45 0 45 C0 30.15 0 15.3 0 0 Z " fill="#020202" transform="translate(292,276)"/>
<path d="M0 0 C22 0 22 0 29 4 C32.25117214 7.67067823 32.46547975 11.12785699 32.28515625 15.85546875 C31.69281493 20.31020007 29.62924745 22.45855452 26.3125 25.3125 C25.549375 25.869375 24.78625 26.42625 24 27 C25.81295208 32.02682168 28.60057286 36.14249661 31.5390625 40.57421875 C33 43 33 43 33 45 C29.37 45 25.74 45 22 45 C21.39671875 43.85660156 20.7934375 42.71320313 20.171875 41.53515625 C19.36528017 40.04389372 18.55795013 38.55302868 17.75 37.0625 C17.35425781 36.30775391 16.95851563 35.55300781 16.55078125 34.77539062 C16.15761719 34.05673828 15.76445313 33.33808594 15.359375 32.59765625 C15.00327148 31.93258057 14.64716797 31.26750488 14.28027344 30.58227539 C12.89684897 28.54806243 12.89684897 28.54806243 9 28 C9 33.61 9 39.22 9 45 C6.03 45 3.06 45 0 45 C0 30.15 0 15.3 0 0 Z M9 8 C9 11.96 9 15.92 9 20 C10.753125 20.0825 12.50625 20.165 14.3125 20.25 C15.79169922 20.31960938 15.79169922 20.31960938 17.30078125 20.390625 C20.09754653 20.25245691 20.09754653 20.25245691 21.8671875 18.21484375 C23.55905302 14.90695497 22.86345787 12.52025133 22 9 C18.14854957 7.07427479 13.19956748 7.95116782 9 8 Z " fill="#040404" transform="translate(525,276)"/>
<path d="M0 0 C2.97 0 5.94 0 9 0 C9.33 5.94 9.66 11.88 10 18 C15.94 18 21.88 18 28 18 C28 12.06 28 6.12 28 0 C30.97 0 33.94 0 37 0 C37 14.85 37 29.7 37 45 C34.03 45 31.06 45 28 45 C27.67 39.06 27.34 33.12 27 27 C21.39 27 15.78 27 10 27 C9.67 32.94 9.34 38.88 9 45 C6.03 45 3.06 45 0 45 C0 30.15 0 15.3 0 0 Z " fill="#030303" transform="translate(370,276)"/>
<path d="M0 0 C3.3 0 6.6 0 10 0 C13.70244362 8.56755413 16.97602776 17.24225173 20.0769043 26.04003906 C20.82437806 28.15866698 21.57888792 30.27470339 22.33398438 32.390625 C22.81291421 33.74204078 23.29144541 35.09359791 23.76953125 36.4453125 C24.19854736 37.65719238 24.62756348 38.86907227 25.06958008 40.11767578 C26 43 26 43 26 45 C22.7 45 19.4 45 16 45 C15.01 42.36 14.02 39.72 13 37 C7.72 37 2.44 37 -3 37 C-3.99 39.64 -4.98 42.28 -6 45 C-9.3 45 -12.6 45 -16 45 C-15.21875 42.78645833 -14.4375 40.57291667 -13.65625 38.359375 C-12.82135139 35.76587262 -12.82135139 35.76587262 -13 32 C-12.34 32 -11.68 32 -11 32 C-10.87625 31.44957031 -10.7525 30.89914062 -10.625 30.33203125 C-8.03687471 19.89865117 -3.90679535 9.99434346 0 0 Z M5 13 C3.1126275 17.28948295 1.42265594 21.52879563 0 26 C-0.33 26.99 -0.66 27.98 -1 29 C2.96 29 6.92 29 11 29 C9.40615011 23.63886855 7.8106711 18.29273092 6 13 C5.67 13 5.34 13 5 13 Z " fill="#040404" transform="translate(660,276)"/>
<path d="M0 0 C3.3 0 6.6 0 10 0 C15.68671732 14.89378345 21.08648196 29.83287035 26 45 C22.7 45 19.4 45 16 45 C15.01 42.36 14.02 39.72 13 37 C7.39 36.67 1.78 36.34 -4 36 C-4.33 37.98 -4.66 39.96 -5 42 C-5.66 42.99 -6.32 43.98 -7 45 C-9.1640625 45.29296875 -9.1640625 45.29296875 -11.625 45.1875 C-12.44226563 45.16042969 -13.25953125 45.13335937 -14.1015625 45.10546875 C-14.72804688 45.07066406 -15.35453125 45.03585937 -16 45 C-14.2288298 37.34179743 -11.59542324 30.15031777 -8.70239258 22.86376953 C-6.30743484 16.82972016 -4.0872486 10.75292315 -1.9453125 4.625 C-1 2 -1 2 0 0 Z M4 13 C3.16486141 15.47857204 2.33180875 17.95781067 1.5 20.4375 C1.26152344 21.14455078 1.02304687 21.85160156 0.77734375 22.58007812 C-0.4617834 25.7238026 -0.4617834 25.7238026 -1 29 C2.96 29 6.92 29 11 29 C10.21735638 26.51764563 9.42444723 24.03943904 8.625 21.5625 C8.40328125 20.85544922 8.1815625 20.14839844 7.953125 19.41992188 C7.35897394 17.5937811 6.68450381 15.79422968 6 14 C5.34 13.67 4.68 13.34 4 13 Z " fill="#050505" transform="translate(461,276)"/>
<path d="M0 0 C8.58 0 17.16 0 26 0 C26 2.31 26 4.62 26 7 C20.39 7 14.78 7 9 7 C9 10.63 9 14.26 9 18 C13.95 18 18.9 18 24 18 C24 20.64 24 23.28 24 26 C19.05 26 14.1 26 9 26 C9 29.96 9 33.92 9 38 C10.14339844 37.98839844 11.28679687 37.97679687 12.46484375 37.96484375 C13.95572754 37.95546712 15.44661309 37.94636679 16.9375 37.9375 C17.69224609 37.92912109 18.44699219 37.92074219 19.22460938 37.91210938 C21.14994313 37.90347559 23.07535581 37.94775667 25 38 C26 39 26 39 26 45 C17.42 45 8.84 45 0 45 C0 30.15 0 15.3 0 0 Z " fill="#020202" transform="translate(226,276)"/>
<path d="M0 0 C8.58 0 17.16 0 26 0 C26 2.31 26 4.62 26 7 C20.39 7 14.78 7 9 7 C9.33 7.99 9.66 8.98 10 10 C9.83988879 12.70123106 9.39559392 15.31875231 9 18 C9.99902344 17.98839844 10.99804688 17.97679687 12.02734375 17.96484375 C13.31769531 17.95582031 14.60804687 17.94679688 15.9375 17.9375 C17.22527344 17.92589844 18.51304688 17.91429687 19.83984375 17.90234375 C23 18 23 18 24 19 C24.125 22 24.125 22 24 25 C23 26 23 26 19.83984375 26.09765625 C18.55207031 26.08605469 17.26429687 26.07445312 15.9375 26.0625 C14.64714844 26.05347656 13.35679688 26.04445313 12.02734375 26.03515625 C11.02832031 26.02355469 10.02929688 26.01195312 9 26 C9 29.96 9 33.92 9 38 C14.61 38 20.22 38 26 38 C26 40.31 26 42.62 26 45 C17.42 45 8.84 45 0 45 C0 30.15 0 15.3 0 0 Z " fill="#020202" transform="translate(0,276)"/>
<path d="M0 0 C30.03 0.33 60.06 0.66 91 1 C91 1.33 91 1.66 91 2 C61.63 2 32.26 2 2 2 C-0.72411689 20.11118 -0.72411689 20.11118 4 35 C6.85188111 35.07645794 9.67981271 35.09061718 12.53125 35.0625 C13.82887268 35.05682007 13.82887268 35.05682007 15.15270996 35.05102539 C18.86390951 35.03466988 22.57500017 35.00680862 26.28613281 34.97949219 C28.99283322 34.96124908 31.69951476 34.94924397 34.40625 34.9375 C35.23161255 34.92920166 36.0569751 34.92090332 36.90734863 34.91235352 C43.42785423 34.8853262 49.78243927 34.96366512 56.03198242 36.9765625 C58.75947109 39.780858 58.56821656 41.85110311 58.56648254 45.66650391 C58.5277729 47.00720947 58.5277729 47.00720947 58.48828125 48.375 C58.48120651 49.29587402 58.47413177 50.21674805 58.46684265 51.16552734 C58.4388419 54.11117548 58.37613701 57.054927 58.3125 60 C58.28742059 61.98434735 58.2646068 63.96872471 58.24414062 65.953125 C58.19495035 70.32427712 58.123884 74.6944516 58.03364563 79.06494141 C58.00504668 80.70975056 58 82.35494224 58 84 C57.6937566 85.33981486 57.36548445 86.67511887 57 88 C57.66 88 58.32 88 59 88 C59 88.99 59 89.98 59 91 C69.56 91 80.12 91 91 91 C91 91.33 91 91.66 91 92 C78.79 92 66.58 92 54 92 C53.67 74.51 53.34 57.02 53 39 C35.51 38.67 18.02 38.34 0 38 C0 25.46 0 12.92 0 0 Z " fill="#B11015" transform="translate(684,0)"/>
<path d="M0 0 C2.05078125 0.03255208 4.1015625 0.06510417 6.15234375 0.09765625 C7.33751061 4.77006186 7.29690934 9.29694565 7.28515625 14.08203125 C7.28611298 14.93823059 7.2870697 15.79442993 7.28805542 16.67657471 C7.28873383 18.47855707 7.28690324 20.28054191 7.28271484 22.08251953 C7.27733542 24.85194305 7.28268474 27.62120633 7.2890625 30.390625 C7.28840217 32.14192744 7.28712196 33.89322979 7.28515625 35.64453125 C7.28718048 36.47676208 7.28920471 37.30899292 7.29129028 38.16644287 C7.26731193 43.98268807 7.26731193 43.98268807 6.15234375 45.09765625 C4.63306337 45.16945589 3.11066893 45.18157632 1.58984375 45.16015625 C0.76355469 45.15113281 -0.06273437 45.14210938 -0.9140625 45.1328125 C-1.55214844 45.12121094 -2.19023438 45.10960937 -2.84765625 45.09765625 C-2.87292749 38.8496995 -2.89048969 32.60175584 -2.90258789 26.35375977 C-2.90762923 24.22647611 -2.91446216 22.09919594 -2.9230957 19.97192383 C-2.93517004 16.92137799 -2.94088639 13.8708778 -2.9453125 10.8203125 C-2.95047379 9.8630275 -2.95563507 8.90574249 -2.96095276 7.91944885 C-2.96102829 7.0386113 -2.96110382 6.15777374 -2.96118164 5.25024414 C-2.96340225 4.47080948 -2.96562286 3.69137482 -2.96791077 2.88832092 C-2.80142366 0.40922424 -2.48031215 0.13109472 0 0 Z " fill="#0D0D0D" transform="translate(599.84765625,275.90234375)"/>
<path d="M0 0 C3.3 0.33 6.6 0.66 10 1 C10 1.33 10 1.66 10 2 C6.7 2 3.4 2 0 2 C0 1.34 0 0.68 0 0 Z " fill="#B9B9B9" transform="translate(175,290)"/>
<path d="M0 0 C0.99 0 1.98 0 3 0 C3 0.66 3 1.32 3 2 C2.01 1.67 1.02 1.34 0 1 C0 0.67 0 0.34 0 0 Z " fill="#999999" transform="translate(10,284)"/>
<path d="M0 0 C1 4 1 4 1 4 Z " fill="#BFBFBF" transform="translate(535,315)"/>
<path d="M0 0 C0.66 0.66 1.32 1.32 2 2 C1.34 2 0.68 2 0 2 C0 1.34 0 0.68 0 0 Z " fill="#1C1C1C" transform="translate(78,299)"/>
<path d="M0 0 C0.33 0.66 0.66 1.32 1 2 C0.34 1.67 -0.32 1.34 -1 1 C-0.67 0.67 -0.34 0.34 0 0 Z " fill="#AAAAAA" transform="translate(93,275)"/>
<path d="" fill="#555555" transform="translate(0,0)"/>
<path d="" fill="#7F7F7F" transform="translate(0,0)"/>
<path d="" fill="#7F7F7F" transform="translate(0,0)"/>
<path d="" fill="#7F7F7F" transform="translate(0,0)"/>
<path d="" fill="#7F7F7F" transform="translate(0,0)"/>
<path d="M0 0 C2 1 2 1 2 1 Z " fill="#7F7F7F" transform="translate(549,303)"/>
<path d="" fill="#000000" transform="translate(0,0)"/>
<path d="" fill="#7F7F7F" transform="translate(0,0)"/>
<path d="" fill="#7F7F7F" transform="translate(0,0)"/>
<path d="" fill="#7F7F7F" transform="translate(0,0)"/>
<path d="" fill="#7F7F7F" transform="translate(0,0)"/>
<path d="" fill="#7F7F7F" transform="translate(0,0)"/>
<path d="" fill="#000000" transform="translate(0,0)"/>
<path d="" fill="#7F7F7F" transform="translate(0,0)"/>
<path d="" fill="#7F7F7F" transform="translate(0,0)"/>
<path d="" fill="#000000" transform="translate(0,0)"/>
<path d="" fill="#000000" transform="translate(0,0)"/>
<path d="" fill="#000000" transform="translate(0,0)"/>
<path d="" fill="#000000" transform="translate(0,0)"/>
<path d="" fill="#000000" transform="translate(0,0)"/>
<path d="" fill="#FFFFFF" transform="translate(0,0)"/>
<path d="" fill="#FFFFFF" transform="translate(0,0)"/>
<path d="" fill="#000000" transform="translate(0,0)"/>
<path d="" fill="#000000" transform="translate(0,0)"/>
<path d="" fill="#808080" transform="translate(0,0)"/>
<path d="" fill="#FFFFFF" transform="translate(0,0)"/>
<path d="" fill="#000000" transform="translate(0,0)"/>
<path d="" fill="#FFFFFF" transform="translate(0,0)"/>
<path d="" fill="#FFFFFF" transform="translate(0,0)"/>
<path d="" fill="#FFFFFF" transform="translate(0,0)"/>
<path d="" fill="#000000" transform="translate(0,0)"/>
<path d="" fill="#000000" transform="translate(0,0)"/>
<path d="" fill="#000000" transform="translate(0,0)"/>
<path d="" fill="#000000" transform="translate(0,0)"/>
<path d="" fill="#000000" transform="translate(0,0)"/>
<path d="" fill="#000000" transform="translate(0,0)"/>
<path d="" fill="#FFFFFF" transform="translate(0,0)"/>
<path d="" fill="#000000" transform="translate(0,0)"/>
<path d="" fill="#000000" transform="translate(0,0)"/>
<path d="" fill="#FFFFFF" transform="translate(0,0)"/>
<path d="" fill="#000000" transform="translate(0,0)"/>
<path d="" fill="#000000" transform="translate(0,0)"/>
<path d="" fill="#FFFFFF" transform="translate(0,0)"/>
<path d="" fill="#FFFFFF" transform="translate(0,0)"/>
<path d="" fill="#FFFFFF" transform="translate(0,0)"/>
<path d="" fill="#000000" transform="translate(0,0)"/>
<path d="" fill="#000000" transform="translate(0,0)"/>
<path d="" fill="#000000" transform="translate(0,0)"/>
<path d="" fill="#FFFFFF" transform="translate(0,0)"/>
<path d="" fill="#000000" transform="translate(0,0)"/>
<path d="" fill="#000000" transform="translate(0,0)"/>
<path d="" fill="#FFFFFF" transform="translate(0,0)"/>
<path d="" fill="#000000" transform="translate(0,0)"/>
<path d="" fill="#000000" transform="translate(0,0)"/>
<path d="" fill="#000000" transform="translate(0,0)"/>
<path d="" fill="#000000" transform="translate(0,0)"/>
<path d="" fill="#FFFFFF" transform="translate(0,0)"/>
<path d="" fill="#000000" transform="translate(0,0)"/>
<path d="" fill="#000000" transform="translate(0,0)"/>
<path d="" fill="#FFFFFF" transform="translate(0,0)"/>
<path d="" fill="#FFFFFF" transform="translate(0,0)"/>
<path d="" fill="#FFFFFF" transform="translate(0,0)"/>
<path d="" fill="#FFFFFF" transform="translate(0,0)"/>
<path d="" fill="#FFFFFF" transform="translate(0,0)"/>
<path d="" fill="#FFFFFF" transform="translate(0,0)"/>
<path d="" fill="#000000" transform="translate(0,0)"/>
<path d="" fill="#000000" transform="translate(0,0)"/>
<path d="" fill="#000000" transform="translate(0,0)"/>
<path d="" fill="#000000" transform="translate(0,0)"/>
<path d="" fill="#FFFFFF" transform="translate(0,0)"/>
<path d="" fill="#000000" transform="translate(0,0)"/>
<path d="" fill="#FFFFFF" transform="translate(0,0)"/>
<path d="" fill="#FFFFFF" transform="translate(0,0)"/>
<path d="" fill="#000000" transform="translate(0,0)"/>
<path d="" fill="#FFFFFF" transform="translate(0,0)"/>
<path d="" fill="#000000" transform="translate(0,0)"/>
<path d="" fill="#FFFFFF" transform="translate(0,0)"/>
<path d="" fill="#000000" transform="translate(0,0)"/>
<path d="" fill="#000000" transform="translate(0,0)"/>
<path d="" fill="#FFFFFF" transform="translate(0,0)"/>
<path d="" fill="#FFFFFF" transform="translate(0,0)"/>
<path d="" fill="#FFFFFF" transform="translate(0,0)"/>
<path d="" fill="#000000" transform="translate(0,0)"/>
<path d="" fill="#808080" transform="translate(0,0)"/>
<path d="" fill="#000000" transform="translate(0,0)"/>
<path d="" fill="#000000" transform="translate(0,0)"/>
<path d="" fill="#000000" transform="translate(0,0)"/>
<path d="" fill="#555555" transform="translate(0,0)"/>
<path d="" fill="#000000" transform="translate(0,0)"/>
<path d="" fill="#FFFFFF" transform="translate(0,0)"/>
<path d="" fill="#FFFFFF" transform="translate(0,0)"/>
<path d="" fill="#FFFFFF" transform="translate(0,0)"/>
<path d="" fill="#000000" transform="translate(0,0)"/>
<path d="" fill="#FFFFFF" transform="translate(0,0)"/>
<path d="" fill="#000000" transform="translate(0,0)"/>
<path d="" fill="#000000" transform="translate(0,0)"/>
<path d="" fill="#000000" transform="translate(0,0)"/>
<path d="" fill="#FFFFFF" transform="translate(0,0)"/>
<path d="" fill="#000000" transform="translate(0,0)"/>
<path d="" fill="#808080" transform="translate(0,0)"/>
<path d="" fill="#000000" transform="translate(0,0)"/>
<path d="" fill="#808080" transform="translate(0,0)"/>
<path d="" fill="#FFFFFF" transform="translate(0,0)"/>
<path d="" fill="#000000" transform="translate(0,0)"/>
<path d="" fill="#000000" transform="translate(0,0)"/>
<path d="" fill="#FFFFFF" transform="translate(0,0)"/>
<path d="" fill="#FFFFFF" transform="translate(0,0)"/>
<path d="" fill="#000000" transform="translate(0,0)"/>
<path d="" fill="#000000" transform="translate(0,0)"/>
<path d="" fill="#000000" transform="translate(0,0)"/>
<path d="" fill="#000000" transform="translate(0,0)"/>
<path d="" fill="#000000" transform="translate(0,0)"/>
<path d="" fill="#000000" transform="translate(0,0)"/>
<path d="" fill="#000000" transform="translate(0,0)"/>
<path d="" fill="#FFFFFF" transform="translate(0,0)"/>
<path d="" fill="#000000" transform="translate(0,0)"/>
<path d="" fill="#FFFFFF" transform="translate(0,0)"/>
<path d="" fill="#000000" transform="translate(0,0)"/>
<path d="" fill="#FFFFFF" transform="translate(0,0)"/>
<path d="" fill="#000000" transform="translate(0,0)"/>
<path d="" fill="#FFFFFF" transform="translate(0,0)"/>
<path d="" fill="#000000" transform="translate(0,0)"/>
<path d="" fill="#FFFFFF" transform="translate(0,0)"/>
<path d="" fill="#000000" transform="translate(0,0)"/>
<path d="" fill="#000000" transform="translate(0,0)"/>
<path d="" fill="#FFFFFF" transform="translate(0,0)"/>
<path d="" fill="#FFFFFF" transform="translate(0,0)"/>
<path d="" fill="#FFFFFF" transform="translate(0,0)"/>
<path d="" fill="#000000" transform="translate(0,0)"/>
<path d="" fill="#000000" transform="translate(0,0)"/>
<path d="" fill="#FFFFFF" transform="translate(0,0)"/>
<path d="" fill="#000000" transform="translate(0,0)"/>
<path d="" fill="#FFFFFF" transform="translate(0,0)"/>
<path d="" fill="#000000" transform="translate(0,0)"/>
<path d="" fill="#000000" transform="translate(0,0)"/>
<path d="" fill="#FFFFFF" transform="translate(0,0)"/>
<path d="" fill="#555555" transform="translate(0,0)"/>
<path d="" fill="#FFFFFF" transform="translate(0,0)"/>
<path d="" fill="#FFFFFF" transform="translate(0,0)"/>
</svg>
